<?xml version="1.0" encoding="UTF-8" standalone="no"?>
<!-- Created with Inkscape (http://www.inkscape.org/) -->

<svg
   version="1.1"
   id="svg1"
   width="35.29134"
   height="41.525162"
   viewBox="0 0 35.29134 41.525162"
   xmlns="http://www.w3.org/2000/svg"
   xmlns:svg="http://www.w3.org/2000/svg">
  <defs
     id="defs1">
    <clipPath
       clipPathUnits="userSpaceOnUse"
       id="clipPath2">
      <path
         d="M 0,48 H 48 V 0 H 0 Z"
         transform="translate(-23.916901,-23.4559)"
         id="path2" />
    </clipPath>
    <clipPath
       clipPathUnits="userSpaceOnUse"
       id="clipPath4">
      <path
         d="M 0,48 H 48 V 0 H 0 Z"
         transform="translate(-34.078001,-19.194801)"
         id="path4" />
    </clipPath>
  </defs>
  <g
     id="layer-MC0"
     transform="translate(-14.354231,-11.237384)">
    <path
       id="path1"
       d="m 0,0 c -0.733,-0.236 -1.553,-0.639 -1.708,-1.475 -0.339,-1.322 1.144,-2.581 2.405,-2.108 0.892,0.264 1.275,1.2 1.322,2.055 C 3.725,0.247 5.333,2.117 6.75,4.133 4.994,5.919 2.594,7.131 0.05,7.055 -0.017,4.703 0.044,2.35 0,0"
       style="fill:#d85c35;fill-opacity:1;fill-rule:nonzero;stroke:none"
       transform="matrix(1.3333333,0,0,-1.3333333,31.8892,32.725467)"
       clip-path="url(#clipPath2)" />
    <path
       id="path3"
       d="m 0,0 c -0.856,-3.858 -4.147,-6.997 -7.989,-7.814 -4.042,-0.861 -8.361,1.086 -10.653,4.458 -1.838,2.734 -2.272,6.381 -1.058,9.45 1.133,2.967 3.706,5.348 6.767,6.211 3.141,0.909 6.683,0.203 9.261,-1.802 C -0.547,8.117 0.978,3.817 0,0 m -0.2,11.275 c 0.28,0.278 0.564,0.553 0.853,0.825 0.275,-0.197 0.564,-0.375 0.866,-0.536 0.92,-0.361 1.937,1.003 1.22,1.744 -0.842,0.934 -1.786,1.784 -2.761,2.567 -0.822,0.417 -1.431,-0.508 -1.778,-1.12 0.303,-0.397 0.617,-0.783 0.942,-1.166 -0.348,-0.253 -0.692,-0.506 -1.036,-0.756 -1.82,1.375 -3.987,2.286 -6.245,2.611 0.003,0.611 0.008,1.22 0.017,1.828 0.664,0.064 1.575,-0.13 1.969,0.575 0.328,0.836 0.306,2.258 -0.789,2.483 -2.039,0.078 -4.086,0.042 -6.127,0.014 -1.175,-0.061 -1.217,-1.583 -0.911,-2.419 0.347,-0.789 1.313,-0.639 2.016,-0.697 0.006,-0.581 0.022,-1.161 -0.005,-1.742 -2.034,-0.5 -4.12,-1.081 -5.817,-2.364 -2.053,-1.589 -3.85,-3.636 -4.678,-6.133 -1.728,-4.386 -0.753,-9.681 2.35,-13.217 4.45,-5.419 13.42,-6.077 18.678,-1.48 2.161,1.93 3.886,4.497 4.342,7.402 C 3.678,3.753 2.669,8.225 -0.2,11.275"
       style="fill:#161c3d;fill-opacity:1;fill-rule:nonzero;stroke:none"
       transform="matrix(1.3333333,0,0,-1.3333333,45.437333,38.406933)"
       clip-path="url(#clipPath4)" />
  </g>
</svg>
