<?xml version="1.0" encoding="UTF-8" standalone="no"?>
<!-- Created with Inkscape (http://www.inkscape.org/) -->

<svg
   version="1.1"
   id="svg1"
   width="45.275169"
   height="36.355221"
   viewBox="0 0 45.275169 36.355221"
   xmlns="http://www.w3.org/2000/svg"
   xmlns:svg="http://www.w3.org/2000/svg">
  <defs
     id="defs1">
    <clipPath
       clipPathUnits="userSpaceOnUse"
       id="clipPath2">
      <path
         d="M 0,48 H 48 V 0 H 0 Z"
         transform="translate(-36.705101,-17.661801)"
         id="path2" />
    </clipPath>
    <clipPath
       clipPathUnits="userSpaceOnUse"
       id="clipPath4">
      <path
         d="M 0,48 H 48 V 0 H 0 Z"
         transform="translate(-37.987301,-20.741301)"
         id="path4" />
    </clipPath>
    <clipPath
       clipPathUnits="userSpaceOnUse"
       id="clipPath6">
      <path
         d="M 0,48 H 48 V 0 H 0 Z"
         transform="translate(-13.7487,-21.660501)"
         id="path6" />
    </clipPath>
    <clipPath
       clipPathUnits="userSpaceOnUse"
       id="clipPath8">
      <path
         d="M 0,48 H 48 V 0 H 0 Z"
         transform="translate(-23.9476,-13.118601)"
         id="path8" />
    </clipPath>
    <clipPath
       clipPathUnits="userSpaceOnUse"
       id="clipPath10">
      <path
         d="M 0,48 H 48 V 0 H 0 Z"
         transform="translate(-18.3213,-19.9803)"
         id="path10" />
    </clipPath>
    <clipPath
       clipPathUnits="userSpaceOnUse"
       id="clipPath12">
      <path
         d="M 0,48 H 48 V 0 H 0 Z"
         transform="translate(-20.832901,-16.2156)"
         id="path12" />
    </clipPath>
  </defs>
  <g
     id="layer-MC0"
     transform="translate(-9.3628007,-13.822647)">
    <path
       id="path1"
       d="m 0,0 c -0.041,-0.41 -0.24,-0.779 -0.562,-1.042 -0.656,-0.539 -1.634,-0.439 -2.172,0.222 l -0.24,0.293 c -0.029,0.041 -0.047,0.082 -0.076,0.117 L -5.808,2.974 C -6.077,3.302 -6.557,3.349 -6.879,3.085 -7.049,2.945 -7.143,2.746 -7.154,2.547 -7.172,2.359 -7.119,2.166 -6.996,2.008 l 0.005,0.006 2.758,-3.384 c 0.539,-0.662 0.439,-1.634 -0.217,-2.172 -0.661,-0.539 -1.639,-0.439 -2.178,0.222 l -2.757,3.378 c -0.264,0.328 -0.744,0.375 -1.072,0.112 -0.322,-0.27 -0.374,-0.744 -0.105,-1.072 l 2.377,-2.921 c 0.539,-0.656 0.439,-1.634 -0.217,-2.172 -0.661,-0.539 -1.639,-0.439 -2.177,0.222 l -0.691,0.849 c 0.011,0.123 0.035,0.246 0.035,0.369 0.006,0.785 -0.293,1.522 -0.837,2.078 l -0.059,0.053 c -0.545,0.562 -1.276,0.872 -2.061,0.878 -0.058,0 -0.111,-0.011 -0.17,-0.017 0,0.035 0.012,0.07 0.012,0.105 0.006,0.761 -0.287,1.481 -0.82,2.026 l -0.158,0.158 c -0.462,0.468 -1.048,0.732 -1.651,0.814 0.065,0.246 0.112,0.503 0.117,0.767 0.006,0.79 -0.298,1.539 -0.854,2.101 -1.031,1.054 -2.658,1.16 -3.824,0.334 -0.128,0.492 -0.368,0.949 -0.737,1.318 l -0.053,0.058 c -0.55,0.556 -1.282,0.867 -2.061,0.873 -0.767,-0.018 -1.522,-0.293 -2.078,-0.838 l -1.353,-1.329 c -1.241,1.681 -1.861,3.671 -1.861,5.65 0,2.365 0.872,4.713 2.605,6.54 0.117,0.129 0.246,0.257 0.386,0.386 3.215,3.015 7.969,3.361 11.54,1.13 -0.884,-0.849 -1.78,-1.727 -2.494,-2.435 l -0.351,-0.358 c -0.715,-0.72 -1.119,-1.118 -1.382,-1.545 -0.545,-0.855 -0.972,-2.641 0.076,-4.098 0.263,-0.358 0.585,-0.767 1.194,-1.101 0.381,-0.211 0.738,-0.346 1.089,-0.428 0.24,-0.052 0.48,-0.082 0.72,-0.082 1.119,0 1.973,0.586 2.893,1.294 l 2.939,2.19 c 0.052,0.041 0.111,0.07 0.146,0.082 l 0.088,0.029 0.07,0.024 c 0.076,0.017 0.147,0.023 0.223,0.023 0.257,0 0.503,-0.111 0.673,-0.316 L -3.425,4.918 C -3.419,4.912 -3.419,4.906 -3.413,4.9 L -0.34,1.13 C -0.076,0.814 0.041,0.41 0,0"
       style="fill:#1d1f4a;fill-opacity:1;fill-rule:nonzero;stroke:none"
       transform="matrix(1.3333333,0,0,-1.3333333,48.940133,40.450933)"
       clip-path="url(#clipPath2)" />
    <path
       id="path3"
       d="m 0,0 -0.638,-0.603 -8.741,10.31 c -0.475,0.568 -1.154,0.861 -1.845,0.861 -0.199,0 -0.404,-0.024 -0.603,-0.076 -0.099,-0.012 -0.199,-0.047 -0.292,-0.094 -0.194,-0.064 -0.375,-0.164 -0.545,-0.287 l -2.951,-2.207 c -0.796,-0.609 -1.346,-0.978 -1.967,-0.978 -0.123,0 -0.252,0.018 -0.38,0.047 -0.217,0.047 -0.445,0.141 -0.697,0.275 -0.322,0.176 -0.492,0.387 -0.691,0.656 -0.609,0.843 -0.298,1.973 -0.023,2.395 0.199,0.327 0.667,0.772 1.522,1.639 0.773,0.773 1.739,1.709 2.652,2.593 0.234,-0.193 0.445,-0.409 0.662,-0.626 l 0.509,-0.55 c 0.064,-0.065 0.152,-0.1 0.234,-0.1 0.082,0 0.164,0.029 0.223,0.088 l 0.544,0.515 c 1.839,1.727 4.18,2.576 6.511,2.576 2.529,0 5.064,-1.001 6.926,-2.991 C 4.005,9.614 3.823,3.601 0,0"
       style="fill:#d85c35;fill-opacity:1;fill-rule:nonzero;stroke:none"
       transform="matrix(1.3333333,0,0,-1.3333333,50.649733,36.344933)"
       clip-path="url(#clipPath4)" />
    <path
       id="path5"
       d="m 0,0 c -0.006,-0.375 -0.152,-0.726 -0.422,-0.989 l -1.352,-1.335 -0.023,-0.024 c -0.27,-0.263 -0.609,-0.427 -1.002,-0.404 -0.374,0 -0.726,0.153 -0.989,0.416 l -0.059,0.059 c -0.263,0.269 -0.404,0.62 -0.398,0.995 0,0.38 0.153,0.732 0.416,0.995 l 1.382,1.353 c 0.263,0.263 0.614,0.404 0.983,0.404 h 0.012 c 0.375,0 0.732,-0.153 0.995,-0.416 L -0.404,0.995 C -0.141,0.726 0,0.375 0,0"
       style="fill:#d85c35;fill-opacity:1;fill-rule:nonzero;stroke:none"
       transform="matrix(1.3333333,0,0,-1.3333333,18.3316,35.119333)"
       clip-path="url(#clipPath6)" />
    <path
       id="path7"
       d="m 0,0 c 0,-0.375 -0.152,-0.726 -0.416,-0.99 l -1.381,-1.358 c -0.264,-0.257 -0.615,-0.404 -0.99,-0.404 h -0.012 c -0.374,0.006 -0.726,0.152 -0.989,0.422 l -0.053,0.058 c -0.544,0.551 -0.538,1.441 0.018,1.985 l 1.376,1.358 c 0.269,0.264 0.614,0.404 0.989,0.404 h 0.012 C -1.071,1.47 -0.72,1.323 -0.457,1.054 L -0.404,1.001 C -0.141,0.732 0.006,0.375 0,0"
       style="fill:#d85c35;fill-opacity:1;fill-rule:nonzero;stroke:none"
       transform="matrix(1.3333333,0,0,-1.3333333,31.930133,46.508533)"
       clip-path="url(#clipPath8)" />
    <path
       id="path9"
       d="m 0,0 c -0.006,-0.387 -0.158,-0.749 -0.433,-1.019 l -0.551,-0.538 -0.726,-0.721 -1.539,-1.51 c -0.276,-0.269 -0.644,-0.445 -1.025,-0.416 -0.386,0 -0.749,0.158 -1.019,0.434 -0.562,0.567 -0.55,1.481 0.018,2.043 l 2.816,2.769 c 0.281,0.275 0.644,0.416 1.013,0.416 0.375,0 0.749,-0.147 1.03,-0.433 C -0.146,0.749 0,0.386 0,0"
       style="fill:#d85c35;fill-opacity:1;fill-rule:nonzero;stroke:none"
       transform="matrix(1.3333333,0,0,-1.3333333,24.4284,37.3596)"
       clip-path="url(#clipPath10)" />
    <path
       id="path11"
       d="m 0,0 c -0.006,-0.357 -0.146,-0.691 -0.398,-0.943 l -2.348,-2.306 c -0.252,-0.246 -0.585,-0.387 -0.937,-0.387 h -0.011 c -0.357,0.006 -0.691,0.147 -0.937,0.398 l -0.158,0.164 c -0.252,0.252 -0.387,0.592 -0.387,0.943 0.006,0.357 0.147,0.691 0.399,0.943 l 2.353,2.312 c 0.258,0.252 0.597,0.381 0.931,0.381 0.345,0 0.691,-0.135 0.954,-0.398 L -0.381,0.943 C -0.135,0.691 0,0.357 0,0"
       style="fill:#d85c35;fill-opacity:1;fill-rule:nonzero;stroke:none"
       transform="matrix(1.3333333,0,0,-1.3333333,27.7772,42.3792)"
       clip-path="url(#clipPath12)" />
  </g>
</svg>
